# xmcd
#
# Track frame offsets:
# 150
# 16702
# 30735
# 48997
# 63021
# 85183
# 100584
# 111233
# 124493
# 137521
# 149325
# 163392
# 179965
# 194942
# 205250
# 218636
# 229691
# 243060
# 252182
# 266445
#
# Disc length: 3659 seconds
#
#
# Revision: 0
# Processed by: cddbd v1.5.1PL2 Copyright (c) Steve Scherf et al.
# Submitted via: FreeRIP 2.944 
#
DISCID=210e4914
DTITLE=Moreno and Moreninho - As 20 mais Moreno and Moreninho
DYEAR=1900
DGENRE=Sertanejo
TTITLE0=Moreno and Moreninho-João Boiadeiro
TTITLE1=Moreno and Moreninho-Mané Tibiriça
TTITLE2=Moreno and Moreninho-Rincão Mineiro
TTITLE3=Moreno and Moreninho-Eu preciso de você
TTITLE4=Moreno and Moreninho-Boidadeiro de Minas
TTITLE5=Moreno and Moreninho-Canoeiro e Pirarpora
TTITLE6=Moreno and Moreninho-Cartinha Venturosa
TTITLE7=Moreno and Moreninho-Pedaço de Coração
TTITLE8=Moreno and Moreninho-13 de Maio
TTITLE9=Moreno and Moreninho-Pedaço de Figura
TTITLE10=Moreno and Moreninho-A professora e o vagabundo
TTITLE11=Moreno and Moreninho-Anel de boiadeiro
TTITLE12=Moreno and Moreninho-Triste canarinho
TTITLE13=Moreno and Moreninho-Parabéns, parabéns
TTITLE14=Moreno and Moreninho-Balanço de rede
TTITLE15=Moreno and Moreninho-Morena ingrata
TTITLE16=Moreno and Moreninho-Folia de reis (pedido)
TTITLE17=Moreno and Moreninho-Folia de reis (Agradecimento)
TTITLE18=Moreno and Moreninho-Hino de Reis
TTITLE19=Moreno and Moreninho-Nossa Senhora do rosário
EXTD=
EXTT0=
EXTT1=
EXTT2=
EXTT3=
EXTT4=
EXTT5=
EXTT6=
EXTT7=
EXTT8=
EXTT9=
EXTT10=
EXTT11=
EXTT12=
EXTT13=
EXTT14=
EXTT15=
EXTT16=
EXTT17=
EXTT18=
EXTT19=
PLAYORDER=
